<?xml version="1.0" standalone="no"?><!-- Generator: Gravit.io --><svg xmlns="http://www.w3.org/2000/svg" xmlns:xlink="http://www.w3.org/1999/xlink" style="isolation:isolate" viewBox="0 0 560 315" width="560" height="315"><defs><clipPath id="_clipPath_sLnL3AhsS1aWK6rMxh6hHOYE7kYHsROy"><rect width="560" height="315"/></clipPath></defs><g clip-path="url(#_clipPath_sLnL3AhsS1aWK6rMxh6hHOYE7kYHsROy)"><path d=" M 467.362 213.899 C 447.243 206.196 432.072 216.513 420.991 224.019 C 410.495 231.113 406.687 232.891 401.667 231.008 C 396.671 229.107 395.004 225.237 391.891 212.933 C 389.842 204.842 387.313 194.894 380.847 186.693 C 382.225 184.903 383.573 183.131 384.773 181.42 C 391.029 187.308 399.175 191.953 410.428 191.953 C 431.315 191.953 441.725 176.092 448.609 165.603 C 455.125 155.673 457.838 152.578 462.108 152.578 C 470.259 152.578 476.873 145.964 476.873 137.813 C 476.873 129.661 470.259 123.047 462.108 123.047 C 441.22 123.047 430.811 138.908 423.926 149.397 C 417.405 159.327 414.698 162.422 410.428 162.422 C 399.778 162.422 387.369 124.628 350.59 99.723 L 361.203 78.498 C 381.776 77.212 398.123 60.281 398.123 39.375 C 398.123 17.626 380.497 0 358.748 0 C 337 0 319.373 17.626 319.373 39.375 C 319.373 47.385 321.797 54.817 325.907 61.037 L 314.74 83.37 C 304.294 80.54 292.838 78.75 280.004 78.75 C 267.17 78.75 255.709 80.54 245.268 83.37 L 234.102 61.037 C 238.199 54.817 240.623 47.385 240.623 39.375 C 240.623 17.626 222.997 0 201.248 0 C 179.5 0 161.873 17.626 161.873 39.375 C 161.873 60.281 178.214 77.212 198.8 78.504 L 209.412 99.729 C 172.75 124.548 160.12 162.422 149.568 162.422 C 145.299 162.422 142.592 159.327 136.07 149.397 C 129.192 138.908 118.782 123.047 97.889 123.047 C 89.737 123.047 83.123 129.661 83.123 137.813 C 83.123 145.964 89.737 152.578 97.889 152.578 C 102.158 152.578 104.866 155.673 111.387 165.603 C 118.271 176.092 128.681 191.953 149.568 191.953 C 160.821 191.953 168.967 187.308 175.224 181.426 C 176.423 183.143 177.771 184.909 179.149 186.699 C 172.683 194.9 170.154 204.848 168.105 212.939 C 164.992 225.243 163.325 229.107 158.329 231.014 C 153.34 232.897 149.513 231.119 139.005 224.025 C 127.912 216.519 112.722 206.233 92.635 213.905 C 85.012 216.809 81.197 225.336 84.101 232.958 C 87.005 240.594 95.551 244.408 103.155 241.498 C 108.175 239.597 111.978 241.381 122.467 248.487 C 130.804 254.123 141.435 261.321 154.718 261.308 C 159.129 261.308 163.842 260.521 168.85 258.608 C 188.943 250.954 193.447 233.18 196.738 220.192 C 198.098 214.828 199.193 211.278 200.399 208.583 C 210.624 216.956 223.132 224.505 238.322 229.605 C 232.194 252.369 218.524 285.469 201.248 285.469 C 193.096 285.469 186.483 292.083 186.483 300.234 C 186.483 308.386 193.096 315 201.248 315 C 242.309 315 260.957 260.472 267.337 235.549 C 271.453 235.918 275.593 236.25 279.998 236.25 C 284.403 236.25 288.544 235.918 292.66 235.549 C 299.04 260.472 317.687 315 358.748 315 C 366.9 315 373.514 308.386 373.514 300.234 C 373.514 292.083 366.9 285.469 358.748 285.469 C 341.558 285.469 327.857 252.363 321.699 229.599 C 336.889 224.499 349.384 216.95 359.609 208.583 C 360.815 211.278 361.91 214.828 363.27 220.192 C 366.555 233.18 371.065 250.954 391.159 258.608 C 396.167 260.521 400.879 261.308 405.291 261.308 C 418.574 261.308 429.205 254.116 437.541 248.487 C 448.031 241.381 451.864 239.597 456.853 241.498 C 464.476 244.42 473.016 240.594 475.907 232.958 C 478.805 225.33 474.991 216.802 467.362 213.899 L 467.362 213.899 Z  M 358.748 29.531 C 364.175 29.531 368.592 33.949 368.592 39.375 C 368.592 44.801 364.175 49.219 358.748 49.219 C 353.322 49.219 348.904 44.801 348.904 39.375 C 348.904 33.949 353.322 29.531 358.748 29.531 Z  M 201.248 29.531 C 206.675 29.531 211.092 33.949 211.092 39.375 C 211.092 44.801 206.675 49.219 201.248 49.219 C 195.822 49.219 191.404 44.801 191.404 39.375 C 191.404 33.949 195.822 29.531 201.248 29.531 Z " fill="rgb(108,117,125)"/></g></svg>