<?xml version="1.0" standalone="no"?><!-- Generator: Gravit.io --><svg xmlns="http://www.w3.org/2000/svg" xmlns:xlink="http://www.w3.org/1999/xlink" style="isolation:isolate" viewBox="0 0 560 315" width="560" height="315"><defs><clipPath id="_clipPath_IKQqGopCIEyEtTqj9zO7CzHy2NBYh6e3"><rect width="560" height="315"/></clipPath></defs><g clip-path="url(#_clipPath_IKQqGopCIEyEtTqj9zO7CzHy2NBYh6e3)"><path d=" M 419.209 176.382 C 424.605 167.245 427.656 157.5 427.656 145.718 C 427.656 118.639 404.758 93.067 374.857 93.067 L 352.413 93.067 C 355.44 85.185 357.858 75.76 357.858 64.433 C 357.858 19.648 334.67 0 299.245 0 C 261.342 0 263.504 58.406 255.095 66.814 C 241.101 80.809 224.57 107.695 212.792 118.125 L 152.031 118.125 C 141.158 118.125 132.344 126.939 132.344 137.813 L 132.344 285.469 C 132.344 296.342 141.158 305.156 152.031 305.156 L 191.406 305.156 C 200.569 305.156 208.269 298.897 210.465 290.421 C 237.848 291.037 256.644 314.994 319.855 314.994 C 324.297 314.994 329.219 315 333.525 315 C 380.97 315 402.423 290.746 403.01 256.35 C 411.204 245.014 415.499 229.82 413.678 215.135 C 419.741 203.783 422.085 190.315 419.209 176.382 Z  M 381.218 209.5 C 388.946 222.5 381.994 239.898 372.642 244.919 C 377.379 274.93 361.809 285.463 339.961 285.463 L 316.693 285.463 C 272.618 285.463 244.077 262.194 211.094 262.194 L 211.094 147.656 L 217.812 147.656 C 235.26 147.656 259.636 104.042 275.976 87.696 C 293.424 70.247 287.61 41.165 299.245 29.531 C 328.327 29.531 328.327 49.822 328.327 64.433 C 328.327 88.532 310.879 99.33 310.879 122.598 L 374.857 122.598 C 387.844 122.598 398.07 134.232 398.125 145.866 C 398.18 157.494 390.238 169.128 384.424 169.128 C 392.723 178.083 394.496 196.959 381.218 209.5 L 381.218 209.5 Z  M 186.484 265.781 C 186.484 273.936 179.874 280.547 171.719 280.547 C 163.564 280.547 156.953 273.936 156.953 265.781 C 156.953 257.626 163.564 251.016 171.719 251.016 C 179.874 251.016 186.484 257.626 186.484 265.781 Z " fill="rgb(108,117,125)"/></g></svg>